# xmcd
#
# Track frame offsets:
# 150
# 19838
# 44184
# 50627
# 68856
# 93554
# 116106
# 133298
# 148854
# 166783
# 181324
# 197159
# 211930
# 223092
# 236330
# 254391
# 270392
# 289829
# 311049
# 314893
# 324844
# 340234
# 355994
#
# Disc length: 4752 seconds
#
#
# Revision: 0
# Processed by: cddbd v1.5.2PL0 Copyright (c) Steve Scherf et al.
# Submitted via: FreeRIP 2.96 
#
DISCID=7a128e17
DTITLE=Andreas Franz - Jung, blond, tot
DYEAR=2007
DGENRE=Speech
TTITLE0=045 Die Sitzung hatte ihn erschöpft
TTITLE1=046 Kann ich was dafür
TTITLE2=047 Samstag, 19.00 Uhr
TTITLE3=048 Sonntag, 19. September, 0.45 Uhr
TTITLE4=049 Das blonde Mädchen lag nackt
TTITLE5=050 Berger unterbrach sie
TTITLE6=051 Sonntag, 8.30 Uhr
TTITLE7=052 Dr. Pattaneck?
TTITLE8=053 Nur vom Namen her
TTITLE9=054 Soviel steht fest
TTITLE10=055 Wir sind gesichert wie die meisten hier
TTITLE11=056 Sonntag, 15.00 Uhr
TTITLE12=057 Sonntag, 17.00 Uhr
TTITLE13=058 Aus dem Haus kam jetzt
TTITLE14=059 Ich werde es auch kurz machen
TTITLE15=060 Menzel zeigte sich unbeeindruckt
TTITLE16=061 Und Sie sind verdammt spöttisch
TTITLE17=062 Sie parkte hinter seinem Jaguar
TTITLE18=063 Sonntag, 19.30 Uhr
TTITLE19=064 Sonntag, 22.00 Uhr
TTITLE20=065 Montag, 20. September, 12.00 Uhr
TTITLE21=066 Mir kommt es vor als habe er
TTITLE22=CD-Wechsel
EXTD=gelesen von Julia Fischer
EXTT0=
EXTT1=
EXTT2=
EXTT3=
EXTT4=
EXTT5=
EXTT6=
EXTT7=
EXTT8=
EXTT9=
EXTT10=
EXTT11=
EXTT12=
EXTT13=
EXTT14=
EXTT15=
EXTT16=
EXTT17=
EXTT18=
EXTT19=
EXTT20=
EXTT21=
EXTT22=
PLAYORDER=
